<svg width="219" height="312" viewBox="0 0 219 312" fill="none" xmlns="http://www.w3.org/2000/svg">
<path d="M15.6289 296.227H9.26172V299.605H15.2773V301.09H9.26172V305.016C10.7786 305.009 12.1198 304.967 13.2852 304.889C14.4505 304.811 15.6484 304.671 16.8789 304.469L17.0547 305.973C15.7786 306.188 14.5156 306.334 13.2656 306.412C12.0156 306.484 10.5247 306.52 8.79297 306.52H7.38672V294.703H15.6289V296.227ZM20.2773 300.055H23.0898V301.617H20.2773V310.66H18.4219V293.16H20.2773V300.055ZM37.7828 295.094H35.2437V298.121H37.7047V299.547H24.8727V298.121H27.3531V295.094H24.7945V293.688H37.7828V295.094ZM39.2867 302.301H23.3297V300.836H39.2867V302.301ZM37.275 307.672H27.0797V309.078H37.7633V310.484H25.2633V306.363H35.4391V305.055H25.2437V303.668H37.275V307.672ZM33.3883 298.121V295.094H29.1891V298.121H33.3883ZM54.9367 305.055H53.1789V299.156H51.0305V303.551H49.2922V293.492H51.0305V297.633H53.1789V293.18H54.9367V305.055ZM47.3977 299.508H42.593V301.832C43.7648 301.819 44.787 301.777 45.6594 301.705C46.5318 301.633 47.4237 301.507 48.3352 301.324L48.5305 302.789C47.5018 302.997 46.5025 303.137 45.5324 303.209C44.5624 303.281 43.3677 303.316 41.9484 303.316H40.7961V298.141H45.6203V295.992H40.757V294.488H47.3977V299.508ZM49.9367 304.645C49.9367 305.348 50.1971 306.015 50.718 306.646C51.2388 307.271 51.9484 307.805 52.8469 308.248C53.7453 308.684 54.7414 308.98 55.8352 309.137L55.093 310.582C53.7323 310.367 52.5116 309.947 51.4309 309.322C50.3566 308.697 49.5526 307.929 49.0187 307.018C48.4784 307.929 47.6678 308.697 46.5871 309.322C45.5129 309.947 44.2987 310.367 42.9445 310.582L42.2023 309.137C43.2896 308.98 44.2792 308.684 45.1711 308.248C46.0695 307.805 46.7792 307.271 47.3 306.646C47.8208 306.015 48.0812 305.348 48.0812 304.645V304.234H49.9367V304.645ZM72.657 303.355H56.7V301.871H63.7313V300.055H58.243V298.551H60.7234V295.211H58.1648V293.707H71.1531V295.211H68.6141V298.551H71.075V300.055H65.5867V301.871H72.657V303.355ZM70.7039 310.445H58.6141V304.879H70.7039V310.445ZM60.45 308.941H68.907V306.324H60.45V308.941ZM66.7586 298.551V295.211H62.5594V298.551H66.7586Z" fill="#888888"/>
<path d="M116.43 310.836H113.949V293.023H116.43V310.836ZM110.922 301.363H105.062V304.625C106.456 304.618 107.755 304.57 108.959 304.479C110.17 304.387 111.41 304.241 112.68 304.039L112.895 306.051C111.514 306.292 110.141 306.458 108.773 306.549C107.406 306.633 105.844 306.676 104.086 306.676H102.484V299.391H108.383V296.52H102.465V294.508H110.922V301.363ZM134.462 305.094H130.791V310.797H128.291V305.094H124.404V310.797H121.845V305.094H118.193V303.082H134.462V305.094ZM122.568 295.66H130.029V293.688H132.529V301.402H120.107V293.688H122.568V295.66ZM130.029 299.43V297.613H122.568V299.43H130.029ZM139.8 294.273C140.594 294.273 141.314 294.485 141.958 294.908C142.603 295.325 143.13 295.924 143.54 296.705C143.957 297.48 144.224 298.395 144.341 299.449H147.437V293.023H149.898V310.836H147.437V301.441H144.37C144.286 302.568 144.038 303.548 143.628 304.381C143.218 305.208 142.684 305.842 142.027 306.285C141.369 306.728 140.627 306.949 139.8 306.949C138.902 306.949 138.101 306.692 137.398 306.178C136.701 305.657 136.157 304.918 135.767 303.961C135.376 302.997 135.184 301.878 135.191 300.602C135.184 299.332 135.376 298.222 135.767 297.271C136.157 296.314 136.701 295.576 137.398 295.055C138.101 294.534 138.902 294.273 139.8 294.273ZM139.8 296.52C139.357 296.52 138.967 296.679 138.628 296.998C138.29 297.311 138.026 297.776 137.837 298.395C137.655 299.007 137.567 299.742 137.573 300.602C137.567 301.467 137.655 302.206 137.837 302.818C138.026 303.43 138.286 303.896 138.618 304.215C138.957 304.527 139.351 304.684 139.8 304.684C140.249 304.684 140.64 304.527 140.972 304.215C141.31 303.902 141.571 303.44 141.753 302.828C141.935 302.216 142.027 301.474 142.027 300.602C142.027 299.736 141.935 298.997 141.753 298.385C141.571 297.773 141.31 297.311 140.972 296.998C140.64 296.679 140.249 296.52 139.8 296.52ZM156.114 294.566H163.243V293.316H165.723V299.293H153.653V293.316H156.114V294.566ZM163.243 297.438V296.363H156.114V297.438H163.243ZM167.794 302.203H151.583V300.27H167.794V302.203ZM165.821 307.75H155.919V308.805H166.29V310.68H153.477V306.012H163.36V305.074H153.458V303.258H165.821V307.75Z" fill="#7129DD"/>
<path d="M151.5 125H146.824V109.578H146.715L142.258 112.312V108.266L147.152 105.203H151.5V125ZM162.582 125.273C161.16 125.273 159.879 125.018 158.74 124.508C157.61 123.988 156.717 123.268 156.06 122.348C155.413 121.427 155.081 120.388 155.062 119.23H159.601C159.62 119.714 159.761 120.142 160.025 120.516C160.299 120.88 160.659 121.163 161.105 121.363C161.552 121.564 162.044 121.664 162.582 121.664C163.193 121.664 163.739 121.527 164.222 121.254C164.715 120.98 165.093 120.602 165.357 120.119C165.631 119.627 165.763 119.066 165.754 118.438C165.763 117.799 165.631 117.234 165.357 116.742C165.084 116.25 164.701 115.867 164.209 115.594C163.717 115.32 163.156 115.184 162.527 115.184C161.825 115.184 161.233 115.32 160.75 115.594C160.276 115.858 159.902 116.259 159.629 116.797H155.445L156.43 105.203H169.09V108.977H160.258L159.793 113.707H159.93C160.276 113.151 160.814 112.704 161.543 112.367C162.272 112.021 163.092 111.848 164.004 111.848C165.198 111.848 166.269 112.126 167.217 112.682C168.165 113.229 168.907 113.994 169.445 114.979C169.992 115.954 170.265 117.061 170.265 118.301C170.265 119.65 169.942 120.853 169.295 121.91C168.657 122.967 167.754 123.792 166.588 124.385C165.43 124.977 164.095 125.273 162.582 125.273ZM184.054 116.742H171.886V104.547H184.054V116.742ZM175.769 113.68H180.172V107.664H175.769V113.68ZM191.218 109.633H194.472V112.859H191.218V120.816H187.281V102.551H191.218V109.633ZM192.039 127.215H174.757V118.984H178.695V124.07H192.039V127.215ZM216.027 121.473H212.062V119.668H207.386V117.016H212.062V102.551H216.027V121.473ZM216.546 127.215H197.57V119.668H201.015V116.496C199.092 116.569 197.069 116.605 194.945 116.605L194.507 113.516H194.917C198.117 113.479 200.956 113.411 203.435 113.311C205.914 113.21 208.279 113.023 210.531 112.75L210.75 115.539C208.936 115.858 207.013 116.095 204.98 116.25V120.953H201.507V124.07H216.546V127.215ZM202.628 103.344C203.832 103.344 204.912 103.54 205.869 103.932C206.826 104.314 207.573 104.852 208.111 105.545C208.649 106.229 208.917 107.008 208.917 107.883C208.917 108.767 208.649 109.546 208.111 110.221C207.573 110.895 206.826 111.419 205.869 111.793C204.921 112.158 203.841 112.34 202.628 112.34C201.398 112.34 200.304 112.158 199.347 111.793C198.39 111.419 197.643 110.9 197.105 110.234C196.576 109.56 196.312 108.776 196.312 107.883C196.312 107.008 196.576 106.229 197.105 105.545C197.643 104.852 198.39 104.314 199.347 103.932C200.313 103.54 201.407 103.344 202.628 103.344ZM202.628 106.215C201.826 106.215 201.193 106.356 200.728 106.639C200.263 106.921 200.031 107.336 200.031 107.883C200.031 108.421 200.263 108.831 200.728 109.113C201.193 109.387 201.826 109.523 202.628 109.523C203.394 109.523 204.009 109.382 204.474 109.1C204.948 108.817 205.19 108.411 205.199 107.883C205.19 107.336 204.948 106.921 204.474 106.639C204.009 106.356 203.394 106.215 202.628 106.215Z" fill="#7129DD"/>
<path d="M59.3477 17.1953C58.3255 17.1953 57.4076 17.0195 56.5938 16.668C55.7865 16.3099 55.1484 15.8151 54.6797 15.1836C54.2174 14.5456 53.9766 13.8229 53.957 13.0156H56.9258C56.9453 13.3607 57.0625 13.6667 57.2773 13.9336C57.4922 14.2005 57.7819 14.4089 58.1465 14.5586C58.5111 14.7018 58.918 14.7734 59.3672 14.7734C59.8294 14.7734 60.2428 14.6921 60.6074 14.5293C60.9785 14.36 61.265 14.1289 61.4668 13.8359C61.6751 13.543 61.776 13.2109 61.7695 12.8398C61.776 12.4557 61.6686 12.1139 61.4473 11.8145C61.2324 11.515 60.9232 11.2839 60.5195 11.1211C60.1159 10.9518 59.6406 10.8672 59.0938 10.8672H57.7852V8.69922H59.0938C59.5495 8.69922 59.9564 8.62109 60.3145 8.46484C60.6725 8.30859 60.9525 8.08724 61.1543 7.80078C61.3561 7.51432 61.457 7.1888 61.457 6.82422C61.457 6.46615 61.3691 6.15039 61.1934 5.87695C61.0241 5.60352 60.7832 5.39193 60.4707 5.24219C60.1582 5.08594 59.7969 5.00781 59.3867 5.00781C58.9701 5.00781 58.5859 5.08268 58.2344 5.23242C57.8893 5.37565 57.6094 5.58398 57.3945 5.85742C57.1862 6.12435 57.0755 6.43359 57.0625 6.78516H54.25C54.263 5.98438 54.4941 5.27148 54.9434 4.64648C55.3926 4.02148 56.0046 3.53646 56.7793 3.19141C57.5605 2.83984 58.4297 2.66406 59.3867 2.66406C60.3503 2.66406 61.2031 2.83984 61.9453 3.19141C62.694 3.53646 63.2734 4.01497 63.6836 4.62695C64.0938 5.23242 64.2956 5.90625 64.2891 6.64844C64.2956 7.16276 64.1849 7.63151 63.957 8.05469C63.7357 8.47135 63.4199 8.81641 63.0098 9.08984C62.6061 9.36328 62.1406 9.54557 61.6133 9.63672V9.75391C62.2969 9.83854 62.8796 10.0273 63.3613 10.3203C63.8431 10.6133 64.2077 10.9941 64.4551 11.4629C64.7025 11.9251 64.8229 12.4492 64.8164 13.0352C64.8229 13.8294 64.5918 14.5456 64.123 15.1836C63.6543 15.8151 63.0033 16.3099 62.1699 16.668C61.3366 17.0195 60.3958 17.1953 59.3477 17.1953ZM71.775 17.1953C70.5966 17.1953 69.581 16.9121 68.7281 16.3457C67.8818 15.7728 67.2307 14.9427 66.775 13.8555C66.3193 12.7682 66.0914 11.4596 66.0914 9.92969C66.0914 8.39974 66.3193 7.09115 66.775 6.00391C67.2307 4.91667 67.8818 4.08984 68.7281 3.52344C69.581 2.95052 70.5966 2.66406 71.775 2.66406C72.9469 2.66406 73.9592 2.95052 74.8121 3.52344C75.665 4.08984 76.3193 4.91992 76.775 6.01367C77.2307 7.10091 77.4586 8.40625 77.4586 9.92969C77.4586 11.4661 77.2307 12.778 76.775 13.8652C76.3193 14.9525 75.665 15.7793 74.8121 16.3457C73.9658 16.9121 72.9534 17.1953 71.775 17.1953ZM71.775 14.7734C72.3219 14.7734 72.7939 14.5977 73.191 14.2461C73.5947 13.8945 73.9039 13.3639 74.1187 12.6543C74.3401 11.9447 74.4508 11.069 74.4508 10.0273C74.4508 8.40625 74.2164 7.17578 73.7477 6.33594C73.2789 5.48958 72.6214 5.06641 71.775 5.06641C70.9286 5.06641 70.2711 5.48958 69.8023 6.33594C69.3336 7.17578 69.0992 8.40625 69.0992 10.0273C69.0992 11.069 69.2066 11.9447 69.4215 12.6543C69.6428 13.3639 69.9521 13.8945 70.3492 14.2461C70.7529 14.5977 71.2281 14.7734 71.775 14.7734ZM87.3664 11.0234H78.8312V2.48828H87.3664V11.0234ZM81.2922 9.07031H84.9055V4.48047H81.2922V9.07031ZM92.4055 6.14062H94.8078V8.19141H92.4055V13.9922H89.9055V1.02344H92.4055V6.14062ZM93.05 18.4844H80.882V12.7227H83.3625V16.4922H93.05V18.4844ZM110.048 14.4609H107.548V13.0547H104.149V11.3555H107.548V1.04297H110.048V14.4609ZM110.438 18.4844H97.1961V13.1719H99.6766V10.8086C98.4656 10.8607 96.9813 10.8867 95.2234 10.8867L94.9305 8.91406C97.2221 8.90104 99.2827 8.86198 101.112 8.79688C102.942 8.73177 104.683 8.59505 106.337 8.38672L106.473 10.1641C105.119 10.3919 103.687 10.5612 102.177 10.6719V14.0508H99.6766V16.4922H110.438V18.4844ZM100.712 1.64844C101.565 1.64193 102.326 1.77214 102.997 2.03906C103.667 2.30599 104.192 2.68359 104.569 3.17188C104.953 3.65365 105.145 4.20703 105.145 4.83203C105.145 5.45052 104.957 5.9974 104.579 6.47266C104.201 6.94792 103.674 7.31576 102.997 7.57617C102.326 7.83008 101.565 7.95703 100.712 7.95703C99.8393 7.95703 99.0646 7.83008 98.3875 7.57617C97.7104 7.31576 97.1831 6.95117 96.8055 6.48242C96.4279 6.00716 96.2391 5.45703 96.2391 4.83203C96.2391 4.20703 96.4246 3.65365 96.7957 3.17188C97.1733 2.68359 97.7007 2.30599 98.3777 2.03906C99.0613 1.77214 99.8393 1.64193 100.712 1.64844ZM100.712 3.46484C100.067 3.46484 99.5529 3.58529 99.1688 3.82617C98.7846 4.06706 98.5958 4.40234 98.6023 4.83203C98.5958 5.25521 98.7814 5.58398 99.159 5.81836C99.5431 6.04622 100.061 6.16016 100.712 6.16016C101.324 6.16016 101.818 6.04297 102.196 5.80859C102.58 5.57422 102.776 5.2487 102.782 4.83203C102.776 4.40234 102.58 4.06706 102.196 3.82617C101.818 3.58529 101.324 3.46484 100.712 3.46484Z" fill="#888888"/>
<path opacity="0.7" d="M0 61C0 38.9086 17.9086 21 40 21C62.0914 21 80 38.9086 80 61V281H0V61Z" fill="url(#paint0_linear_11_3)"/>
<path d="M95 170C95 147.909 112.909 130 135 130C157.091 130 175 147.909 175 170V281H95V170Z" fill="url(#paint1_linear_11_3)" stroke="#7129DD" stroke-linecap="round" stroke-linejoin="round" stroke-dasharray="6 6"/>
<path d="M44.2112 20.1421C43.6826 19.5042 42.737 19.4155 42.0991 19.9441C41.4612 20.4726 41.3726 21.4182 41.9011 22.0561L44.2112 20.1421ZM129.099 124.944L126.197 107.868L112.86 118.919L129.099 124.944ZM43.5558 24.0532C44.0843 24.6911 45.0299 24.7797 45.6679 24.2512C46.3058 23.7226 46.3944 22.777 45.8659 22.1391L43.5558 24.0532ZM49.1752 26.1331C48.6467 25.4952 47.701 25.4066 47.0631 25.9351C46.4252 26.4637 46.3366 27.4093 46.8651 28.0472L49.1752 26.1331ZM50.1745 32.0412C50.703 32.6791 51.6486 32.7678 52.2865 32.2392C52.9244 31.7107 53.0131 30.7651 52.4845 30.1272L50.1745 32.0412ZM55.7939 34.1212C55.2653 33.4833 54.3197 33.3947 53.6818 33.9232C53.0439 34.4518 52.9553 35.3974 53.4838 36.0353L55.7939 34.1212ZM56.7932 40.0293C57.3217 40.6672 58.2673 40.7559 58.9052 40.2273C59.5431 39.6988 59.6318 38.7532 59.1032 38.1153L56.7932 40.0293ZM62.4126 42.1093C61.884 41.4714 60.9384 41.3827 60.3005 41.9113C59.6626 42.4398 59.574 43.3854 60.1025 44.0234L62.4126 42.1093ZM63.4119 48.0174C63.9404 48.6553 64.886 48.7439 65.5239 48.2154C66.1618 47.6868 66.2505 46.7412 65.7219 46.1033L63.4119 48.0174ZM69.0313 50.0974C68.5027 49.4595 67.5571 49.3708 66.9192 49.8994C66.2813 50.4279 66.1927 51.3735 66.7212 52.0114L69.0313 50.0974ZM70.0306 56.0055C70.5591 56.6434 71.5047 56.732 72.1426 56.2035C72.7805 55.6749 72.8692 54.7293 72.3406 54.0914L70.0306 56.0055ZM75.65 58.0854C75.1214 57.4475 74.1758 57.3589 73.5379 57.8874C72.9 58.416 72.8113 59.3616 73.3399 59.9995L75.65 58.0854ZM76.6492 63.9935C77.1778 64.6314 78.1234 64.7201 78.7613 64.1915C79.3992 63.663 79.4879 62.7174 78.9593 62.0795L76.6492 63.9935ZM82.2687 66.0735C81.7401 65.4356 80.7945 65.347 80.1566 65.8755C79.5187 66.4041 79.43 67.3497 79.9586 67.9876L82.2687 66.0735ZM83.2679 71.9816C83.7965 72.6195 84.7421 72.7082 85.38 72.1796C86.0179 71.6511 86.1066 70.7055 85.578 70.0676L83.2679 71.9816ZM88.8873 74.0616C88.3588 73.4237 87.4132 73.335 86.7753 73.8636C86.1374 74.3921 86.0487 75.3377 86.5773 75.9756L88.8873 74.0616ZM89.8866 79.9697C90.4152 80.6076 91.3608 80.6962 91.9987 80.1677C92.6366 79.6391 92.7252 78.6935 92.1967 78.0556L89.8866 79.9697ZM95.506 82.0497C94.9775 81.4118 94.0319 81.3231 93.394 81.8517C92.7561 82.3802 92.6674 83.3258 93.196 83.9637L95.506 82.0497ZM96.5053 87.9577C97.0339 88.5957 97.9795 88.6843 98.6174 88.1558C99.2553 87.6272 99.3439 86.6816 98.8154 86.0437L96.5053 87.9577ZM102.125 90.0377C101.596 89.3998 100.651 89.3112 100.013 89.8397C99.3747 90.3683 99.2861 91.3139 99.8146 91.9518L102.125 90.0377ZM103.124 95.9458C103.653 96.5837 104.598 96.6724 105.236 96.1438C105.874 95.6153 105.963 94.6697 105.434 94.0318L103.124 95.9458ZM108.743 98.0258C108.215 97.3879 107.269 97.2992 106.631 97.8278C105.993 98.3563 105.905 99.3019 106.433 99.9399L108.743 98.0258ZM109.743 103.934C110.271 104.572 111.217 104.66 111.855 104.132C112.493 103.603 112.581 102.658 112.053 102.02L109.743 103.934ZM115.362 106.014C114.834 105.376 113.888 105.287 113.25 105.816C112.612 106.344 112.523 107.29 113.052 107.928L115.362 106.014ZM116.361 111.922C116.89 112.56 117.836 112.649 118.473 112.12C119.111 111.591 119.2 110.646 118.671 110.008L116.361 111.922ZM121.981 114.002C121.452 113.364 120.507 113.275 119.869 113.804C119.231 114.332 119.142 115.278 119.671 115.916L121.981 114.002ZM122.98 119.91C123.509 120.548 124.454 120.637 125.092 120.108C125.73 119.579 125.819 118.634 125.29 117.996L122.98 119.91ZM128.599 121.99C128.071 121.352 127.125 121.263 126.487 121.792C125.849 122.321 125.761 123.266 126.289 123.904L128.599 121.99ZM43.0562 21.0991L41.9011 22.0561L43.5558 24.0532L44.7108 23.0961L45.8659 22.1391L44.2112 20.1421L43.0562 21.0991ZM48.0202 27.0902L46.8651 28.0472L50.1745 32.0412L51.3295 31.0842L52.4845 30.1272L49.1752 26.1331L48.0202 27.0902ZM54.6389 35.0783L53.4838 36.0353L56.7932 40.0293L57.9482 39.0723L59.1032 38.1153L55.7939 34.1212L54.6389 35.0783ZM61.2576 43.0663L60.1025 44.0234L63.4119 48.0174L64.5669 47.0604L65.7219 46.1033L62.4126 42.1093L61.2576 43.0663ZM67.8762 51.0544L66.7212 52.0114L70.0306 56.0055L71.1856 55.0484L72.3406 54.0914L69.0313 50.0974L67.8762 51.0544ZM74.4949 59.0425L73.3399 59.9995L76.6492 63.9935L77.8043 63.0365L78.9593 62.0795L75.65 58.0854L74.4949 59.0425ZM81.1136 67.0305L79.9586 67.9876L83.2679 71.9816L84.423 71.0246L85.578 70.0676L82.2687 66.0735L81.1136 67.0305ZM87.7323 75.0186L86.5773 75.9756L89.8866 79.9697L91.0417 79.0127L92.1967 78.0556L88.8873 74.0616L87.7323 75.0186ZM94.351 83.0067L93.196 83.9637L96.5053 87.9577L97.6603 87.0007L98.8154 86.0437L95.506 82.0497L94.351 83.0067ZM100.97 90.9948L99.8146 91.9518L103.124 95.9458L104.279 94.9888L105.434 94.0318L102.125 90.0377L100.97 90.9948ZM107.588 98.9828L106.433 99.9399L109.743 103.934L110.898 102.977L112.053 102.02L108.743 98.0258L107.588 98.9828ZM114.207 106.971L113.052 107.928L116.361 111.922L117.516 110.965L118.671 110.008L115.362 106.014L114.207 106.971ZM120.826 114.959L119.671 115.916L122.98 119.91L124.135 118.953L125.29 117.996L121.981 114.002L120.826 114.959Z" fill="#7129DD"/>
<circle cx="135" cy="132" r="5" fill="white" stroke="#7129DD" stroke-width="2"/>
<circle cx="40" cy="20" r="5" fill="white" stroke="#888888" stroke-width="2"/>
<defs>
<linearGradient id="paint0_linear_11_3" x1="40" y1="21" x2="40" y2="421" gradientUnits="userSpaceOnUse">
<stop stop-color="#DDDDDD"/>
<stop offset="1" stop-color="white"/>
</linearGradient>
<linearGradient id="paint1_linear_11_3" x1="135" y1="187" x2="135" y2="343" gradientUnits="userSpaceOnUse">
<stop stop-color="#B27FFF"/>
<stop offset="1" stop-color="white"/>
</linearGradient>
</defs>
</svg>
