<svg width="174" height="172" viewBox="0 0 174 172" fill="none" xmlns="http://www.w3.org/2000/svg">
<circle opacity="0.4" cx="103.29" cy="101.5" r="70.5" fill="#DDDDDD"/>
<circle cx="147" cy="10" r="10" fill="#D9BFFF"/>
<circle cx="65.0932" cy="78.8828" r="63.8828" fill="#B380FF" stroke="#7129DD" stroke-width="1.5" stroke-linecap="round" stroke-linejoin="round" stroke-dasharray="8 8"/>
<path d="M49.9346 55.062H67.1669C71.0208 55.062 74.3242 55.7338 77.0769 57.0774C79.8664 58.421 81.9952 60.3093 83.4634 62.7423C84.9315 65.1753 85.6656 68.0259 85.6656 71.2941C85.6656 74.5986 84.9315 77.4855 83.4634 79.9548C81.9952 82.3878 79.8664 84.2761 77.0769 85.6197C74.3242 86.9633 71.0208 87.6351 67.1669 87.6351H59.9547V99.4551H49.9346V55.062ZM66.7265 78.8654C69.5527 78.8654 71.7366 78.2118 73.2781 76.9045C74.8564 75.5972 75.6455 73.7271 75.6455 71.2941C75.6455 68.8611 74.8564 67.0091 73.2781 65.7381C71.7366 64.4672 69.5527 63.8317 66.7265 63.8317H59.9547V78.8654H66.7265Z" fill="white"/>
</svg>
