<svg width="140" height="34" viewBox="0 0 140 34" fill="none" xmlns="http://www.w3.org/2000/svg">
<path d="M103.68 33.2683H95.8007V19.1427H91.1748V23.682C91.1748 29.3561 87.4144 32.5217 81.4157 32.5217C75.417 32.5217 71.6566 29.3262 71.6566 23.682V8.989C71.6566 3.31488 75.417 0.149319 81.4157 0.149319C87.4144 0.149319 91.1748 3.34474 91.1748 8.989V12.5428H95.8007V3.91216L93.9802 0H103.68V33.2683ZM83.3258 8.989C83.3258 7.67499 82.4901 6.77908 81.4157 6.77908C80.3413 6.77908 79.5057 7.67499 79.5057 8.989V23.7118C79.5057 25.0259 80.3413 25.9218 81.4157 25.9218C82.4901 25.9218 83.3258 25.0259 83.3258 23.7118V8.989Z" fill="#7129DD"/>
<path d="M7.87893 19.9489L17.5784 19.7995L20.0853 13.3191H3.4918L0 19.9489H7.87893Z" fill="#7129DD"/>
<path d="M22.1741 0.59721L23.9946 4.50937V33.8655H31.8736V0.59721H22.1741Z" fill="#7129DD"/>
<path d="M7.87893 26.7279V20.5163H4.77511L0 29.3559C0 29.8935 0.179067 30.2817 0.5372 30.6699L2.53678 32.7903C2.89491 33.1785 3.31273 33.3577 3.84993 33.3577H18.6528L21.4581 26.7279H7.87893Z" fill="#7129DD"/>
<path d="M19.5481 3.22523L17.5485 1.1049C17.1904 0.71667 16.7726 0.537487 16.2354 0.537487H0V6.98806H12.2064V12.7219H15.34L20.0853 4.53923C20.0853 4.00169 19.9062 3.61346 19.5481 3.22523Z" fill="#7129DD"/>
<path d="M36.5298 13.8567C36.5298 14.3942 36.7089 14.7824 37.067 15.1707L39.0666 17.291C39.4247 17.6792 39.8426 17.8584 40.3797 17.8584H66.9413V1.1347H59.0624V3.82244V9.73547V11.9454H44.3789V10.064V3.37448V1.1347H35.0376L36.5 5.04685V13.8567H36.5298Z" fill="#7129DD"/>
<path d="M68.2243 19.7996H35.2761V26.4294H41.1256V33.8655H49.0045V26.4294H54.466L55.6897 33.8655H63.5089L62.2853 26.4294H68.2243V19.7996Z" fill="#7129DD"/>
<path d="M45.5726 9.76536H60.2262V3.85233H52.019H49.6912" fill="#7129DD"/>
<path d="M132.927 6.12198H118.184L121.019 1.88132H132.927V6.12198Z" fill="#7129DD"/>
<path d="M108.335 24.2791V27.9822H137.165L138.776 24.2791H108.335Z" fill="#7129DD"/>
<path d="M108.335 7.94377C108.335 8.48132 108.514 8.86954 108.873 9.25777L110.872 11.3781C111.23 11.7663 111.648 11.9455 112.185 11.9455H138.747V0H130.868V1.94115V6.24153V7.67499H116.184V6.24153V1.94115V0H106.843L108.306 3.91216V7.97363L108.335 7.94377Z" fill="#7129DD"/>
<path d="M140 13.3491H107.082V17.8286H140V13.3491Z" fill="#7129DD"/>
<path d="M136.538 24.3986L138.776 19.2919H108.335V23.2339H130.897V24.3986" fill="#7129DD"/>
<path d="M111.051 27.9523L108.425 29.117C108.425 29.6545 108.574 30.1622 108.932 30.5803L110.961 32.5812C111.319 32.9694 111.737 33.1486 112.274 33.1486H137.881L139.373 29.2066H116.274V28.012" fill="#7129DD"/>
</svg>
