<svg width="222" height="222" viewBox="0 0 222 222" fill="none" xmlns="http://www.w3.org/2000/svg">
<circle cx="111" cy="111" r="110.5" stroke="#DDDDDD"/>
<circle opacity="0.5" cx="111" cy="112" r="68" fill="#B380FF" stroke="#7129DD" stroke-width="2" stroke-linecap="round" stroke-linejoin="round" stroke-dasharray="8 8"/>
<path d="M138.712 73C144.628 73 149.424 77.7959 149.424 83.7119C149.424 87.7723 147.164 91.3033 143.834 93.1198C143.477 93.315 143.167 93.5924 142.964 93.9452L140.444 98.3102C139.674 99.6437 137.75 99.6437 136.98 98.3104L134.459 93.945C134.256 93.5923 133.946 93.315 133.589 93.1199C130.259 91.3031 128 87.7719 128 83.7119C128 77.7959 132.796 73.0001 138.712 73Z" fill="#7129DD"/>
<circle cx="138.712" cy="83.75" r="4.5" fill="white"/>
<path d="M110.288 90C119.836 90 127.577 97.7401 127.577 107.288C127.577 113.979 123.775 119.78 118.215 122.654C117.853 122.842 117.545 123.121 117.341 123.474L112.021 132.69C111.251 134.024 109.327 134.024 108.557 132.69L103.236 123.475C103.032 123.122 102.724 122.843 102.362 122.655C96.8014 119.782 93 113.979 93 107.288C93.0002 97.7402 100.74 90.0002 110.288 90Z" fill="#7129DD"/>
<circle cx="110.288" cy="107.35" r="7.2626" fill="white"/>
</svg>
