<svg width="40" height="40" viewBox="0 0 40 40" fill="none" xmlns="http://www.w3.org/2000/svg">
<path d="M20 40C31.0457 40 40 31.0457 40 20C40 8.95431 31.0457 0 20 0C8.95431 0 0 8.95431 0 20C0 31.0457 8.95431 40 20 40Z" fill="#444444"/>
<mask id="mask0_0_344" style="mask-type:luminance" maskUnits="userSpaceOnUse" x="9" y="9" width="22" height="22">
<path d="M30.999 9H9V30.999H30.999V9Z" fill="white"/>
</mask>
<g mask="url(#mask0_0_344)">
<path d="M24.6489 9H15.3501C13.666 9 12.0508 9.66903 10.8599 10.8599C9.66903 12.0508 9 13.666 9 15.3501L9 24.6489C9 25.4828 9.16425 26.3086 9.48337 27.079C9.8025 27.8494 10.2702 28.5494 10.8599 29.1391C12.0508 30.33 13.666 30.999 15.3501 30.999H24.6489C25.4828 30.999 26.3086 30.8348 27.079 30.5156C27.8494 30.1965 28.5494 29.7288 29.1391 29.1391C29.7288 28.5494 30.1965 27.8494 30.5156 27.079C30.8348 26.3086 30.999 25.4828 30.999 24.6489V15.3501C30.999 14.5162 30.8348 13.6905 30.5156 12.92C30.1965 12.1496 29.7288 11.4496 29.1391 10.8599C28.5494 10.2702 27.8494 9.8025 27.079 9.48337C26.3086 9.16425 25.4828 9 24.6489 9ZM28.9729 24.8126C28.9729 25.9303 28.5289 27.0023 27.7386 27.7927C26.9482 28.583 25.8762 29.0271 24.7585 29.0271H15.2406C14.1228 29.0271 13.0508 28.583 12.2605 27.7927C11.4701 27.0023 11.0261 25.9303 11.0261 24.8126V15.296C11.0259 14.7424 11.1348 14.1943 11.3465 13.6828C11.5582 13.1713 11.8686 12.7065 12.26 12.315C12.6514 11.9236 13.116 11.613 13.6274 11.4011C14.1388 11.1892 14.687 11.0802 15.2406 11.0802H24.7571C25.3108 11.08 25.8591 11.1889 26.3707 11.4007C26.8822 11.6125 27.347 11.9231 27.7386 12.3146C28.1301 12.7061 28.4406 13.1709 28.6524 13.6825C28.8642 14.194 28.9731 14.7423 28.9729 15.296V24.8126Z" fill="white"/>
<path d="M19.9986 14.3457C18.8698 14.3457 17.7663 14.6804 16.8278 15.3076C15.8892 15.9347 15.1577 16.826 14.7257 17.8689C14.2937 18.9118 14.1807 20.0593 14.4009 21.1665C14.6211 22.2736 15.1647 23.2905 15.9629 24.0887C16.7611 24.8869 17.778 25.4304 18.8851 25.6507C19.9922 25.8709 21.1398 25.7579 22.1827 25.3259C23.2255 24.8939 24.1169 24.1624 24.744 23.2238C25.3712 22.2853 25.7059 21.1818 25.7059 20.053C25.7059 18.5393 25.1046 17.0877 24.0342 16.0173C22.9639 14.947 21.5122 14.3457 19.9986 14.3457ZM19.9986 23.7541C19.2676 23.7541 18.5531 23.5373 17.9453 23.1312C17.3376 22.7251 16.8639 22.1479 16.5841 21.4726C16.3044 20.7973 16.2312 20.0542 16.3738 19.3373C16.5164 18.6204 16.8684 17.9619 17.3853 17.445C17.9021 16.9281 18.5607 16.5761 19.2776 16.4335C19.9945 16.2909 20.7376 16.3641 21.4129 16.6439C22.0882 16.9236 22.6654 17.3973 23.0715 18.005C23.4776 18.6128 23.6943 19.3273 23.6943 20.0583C23.6943 21.0385 23.305 21.9785 22.6119 22.6716C21.9188 23.3647 20.9787 23.7541 19.9986 23.7541Z" fill="white"/>
<path d="M25.8974 12.7988C25.6345 12.7988 25.3775 12.8768 25.159 13.0228C24.9404 13.1689 24.77 13.3765 24.6694 13.6193C24.5688 13.8622 24.5425 14.1295 24.5938 14.3873C24.6451 14.6451 24.7717 14.882 24.9575 15.0678C25.1434 15.2537 25.3803 15.3803 25.6381 15.4316C25.8959 15.4829 26.1632 15.4566 26.406 15.356C26.6489 15.2554 26.8565 15.085 27.0025 14.8664C27.1486 14.6478 27.2265 14.3909 27.2265 14.128C27.2265 13.7755 27.0865 13.4374 26.8372 13.1881C26.588 12.9389 26.2499 12.7988 25.8974 12.7988Z" fill="white"/>
</g>
</svg>
